<mxfile host="app.diagrams.net" agent="Mozilla/5.0 (Windows NT 10.0; Win64; x64) AppleWebKit/537.36 (KHTML, like Gecko) Chrome/132.0.0.0 Safari/537.36" version="26.0.8">
  <diagram name="Page-1" id="TNQAbRnWBv_6owtCoq6S">
    <mxGraphModel dx="2353" dy="1199" grid="0" gridSize="10" guides="1" tooltips="1" connect="1" arrows="1" fold="1" page="1" pageScale="1" pageWidth="4681" pageHeight="3300" math="0" shadow="0">
      <root>
        <mxCell id="0" />
        <mxCell id="1" parent="0" />
        <mxCell id="69AGn9iMl76dsXh4gzXF-7" style="edgeStyle=orthogonalEdgeStyle;rounded=0;orthogonalLoop=1;jettySize=auto;html=1;entryX=0.546;entryY=1;entryDx=0;entryDy=0;entryPerimeter=0;" parent="1" source="69AGn9iMl76dsXh4gzXF-6" target="Nm7bH2fvmVjQ07k9dVuj-94" edge="1">
          <mxGeometry relative="1" as="geometry" />
        </mxCell>
        <mxCell id="69AGn9iMl76dsXh4gzXF-8" style="edgeStyle=orthogonalEdgeStyle;rounded=0;orthogonalLoop=1;jettySize=auto;html=1;entryX=0.5;entryY=1;entryDx=0;entryDy=0;" parent="1" source="69AGn9iMl76dsXh4gzXF-6" target="Nm7bH2fvmVjQ07k9dVuj-93" edge="1">
          <mxGeometry relative="1" as="geometry" />
        </mxCell>
        <mxCell id="Nm7bH2fvmVjQ07k9dVuj-109" value="" style="group;fillColor=none;strokeColor=#36393d;labelBorderColor=default;" parent="1" vertex="1" connectable="0">
          <mxGeometry x="2069" y="355" width="801" height="296" as="geometry" />
        </mxCell>
        <mxCell id="Nm7bH2fvmVjQ07k9dVuj-83" value="" style="rounded=0;whiteSpace=wrap;html=1;fillColor=none;" parent="Nm7bH2fvmVjQ07k9dVuj-109" vertex="1">
          <mxGeometry width="801" height="296" as="geometry" />
        </mxCell>
        <mxCell id="Nm7bH2fvmVjQ07k9dVuj-87" value="TUITION PHOTO PLACEHOLDER" style="rounded=0;whiteSpace=wrap;html=1;fontSize=16;fillColor=#fff2cc;gradientColor=#ffd966;strokeColor=#000000;" parent="Nm7bH2fvmVjQ07k9dVuj-109" vertex="1">
          <mxGeometry x="25" y="28" width="214" height="149" as="geometry" />
        </mxCell>
        <mxCell id="Nm7bH2fvmVjQ07k9dVuj-97" value="Qualification : Teacher1_Qualification" style="rounded=0;whiteSpace=wrap;html=1;align=left;spacing=5;fillColor=#cce5ff;strokeColor=#36393d;" parent="Nm7bH2fvmVjQ07k9dVuj-109" vertex="1">
          <mxGeometry x="248" y="68" width="271" height="26" as="geometry" />
        </mxCell>
        <mxCell id="Nm7bH2fvmVjQ07k9dVuj-88" value="Name : Teacher1" style="rounded=0;whiteSpace=wrap;html=1;align=left;spacing=5;fillColor=#cce5ff;strokeColor=#36393d;" parent="Nm7bH2fvmVjQ07k9dVuj-109" vertex="1">
          <mxGeometry x="248" y="32" width="272" height="28" as="geometry" />
        </mxCell>
        <mxCell id="Nm7bH2fvmVjQ07k9dVuj-90" value="Address : Teacher1_Address" style="rounded=0;whiteSpace=wrap;html=1;align=left;spacing=5;fillColor=#cce5ff;strokeColor=#36393d;" parent="Nm7bH2fvmVjQ07k9dVuj-109" vertex="1">
          <mxGeometry x="532" y="68" width="241" height="26" as="geometry" />
        </mxCell>
        <mxCell id="Nm7bH2fvmVjQ07k9dVuj-91" value="Phone : 1234567890" style="rounded=0;whiteSpace=wrap;html=1;align=left;spacing=5;fillColor=#cce5ff;strokeColor=#36393d;" parent="Nm7bH2fvmVjQ07k9dVuj-109" vertex="1">
          <mxGeometry x="532" y="32.10000000000002" width="241" height="27.9" as="geometry" />
        </mxCell>
        <mxCell id="Nm7bH2fvmVjQ07k9dVuj-92" value="Subjects" style="rounded=0;whiteSpace=wrap;html=1;align=center;spacing=5;fillColor=#eeeeee;strokeColor=#36393d;fontStyle=1" parent="Nm7bH2fvmVjQ07k9dVuj-109" vertex="1">
          <mxGeometry x="248" y="144" width="90" height="33" as="geometry" />
        </mxCell>
        <mxCell id="Nm7bH2fvmVjQ07k9dVuj-93" value="s1_sub1" style="rounded=0;whiteSpace=wrap;html=1;align=center;spacing=5;fillColor=#ffff88;strokeColor=#36393d;" parent="Nm7bH2fvmVjQ07k9dVuj-109" vertex="1">
          <mxGeometry x="345" y="144" width="131" height="33" as="geometry" />
        </mxCell>
        <mxCell id="Nm7bH2fvmVjQ07k9dVuj-94" value="s1_sub2" style="rounded=0;whiteSpace=wrap;html=1;align=center;spacing=5;fillColor=#ffff88;strokeColor=#36393d;" parent="Nm7bH2fvmVjQ07k9dVuj-109" vertex="1">
          <mxGeometry x="483" y="144" width="135" height="33" as="geometry" />
        </mxCell>
        <mxCell id="Nm7bH2fvmVjQ07k9dVuj-100" value="XI" style="rounded=0;whiteSpace=wrap;html=1;align=center;spacing=5;" parent="Nm7bH2fvmVjQ07k9dVuj-109" vertex="1">
          <mxGeometry x="345" y="102" width="34" height="33" as="geometry" />
        </mxCell>
        <mxCell id="Nm7bH2fvmVjQ07k9dVuj-106" value="" style="html=1;verticalLabelPosition=bottom;align=center;labelBackgroundColor=#ffffff;verticalAlign=top;strokeWidth=2;strokeColor=#0080F0;shadow=0;dashed=0;shape=mxgraph.ios7.icons.location_2;" parent="Nm7bH2fvmVjQ07k9dVuj-109" vertex="1">
          <mxGeometry x="663" y="126" width="51" height="51" as="geometry" />
        </mxCell>
        <mxCell id="Nm7bH2fvmVjQ07k9dVuj-107" value="" style="dashed=0;outlineConnect=0;html=1;align=center;labelPosition=center;verticalLabelPosition=bottom;verticalAlign=top;shape=mxgraph.webicons.phone;fillColor=#76F21E;gradientColor=#079704" parent="Nm7bH2fvmVjQ07k9dVuj-109" vertex="1">
          <mxGeometry x="721" y="126" width="51" height="51" as="geometry" />
        </mxCell>
        <mxCell id="69AGn9iMl76dsXh4gzXF-1" value="" style="group" parent="Nm7bH2fvmVjQ07k9dVuj-109" vertex="1" connectable="0">
          <mxGeometry x="248" y="102" width="171" height="33" as="geometry" />
        </mxCell>
        <mxCell id="Nm7bH2fvmVjQ07k9dVuj-99" value="Classes" style="rounded=0;whiteSpace=wrap;html=1;align=center;spacing=5;fillColor=#eeeeee;strokeColor=#36393d;fontStyle=1" parent="69AGn9iMl76dsXh4gzXF-1" vertex="1">
          <mxGeometry width="90" height="33" as="geometry" />
        </mxCell>
        <mxCell id="Nm7bH2fvmVjQ07k9dVuj-101" value="IX" style="rounded=0;whiteSpace=wrap;html=1;align=center;spacing=5;fillColor=#ffff88;strokeColor=#36393d;" parent="69AGn9iMl76dsXh4gzXF-1" vertex="1">
          <mxGeometry x="97" width="34" height="33" as="geometry" />
        </mxCell>
        <mxCell id="Nm7bH2fvmVjQ07k9dVuj-102" value="X" style="rounded=0;whiteSpace=wrap;html=1;align=center;spacing=5;fillColor=#ffff88;strokeColor=#36393d;" parent="69AGn9iMl76dsXh4gzXF-1" vertex="1">
          <mxGeometry x="137" width="34" height="33" as="geometry" />
        </mxCell>
        <mxCell id="69AGn9iMl76dsXh4gzXF-2" value="" style="group" parent="Nm7bH2fvmVjQ07k9dVuj-109" vertex="1" connectable="0">
          <mxGeometry x="427" y="102" width="191" height="33" as="geometry" />
        </mxCell>
        <mxCell id="69AGn9iMl76dsXh4gzXF-3" value="Stream" style="rounded=0;whiteSpace=wrap;html=1;align=center;spacing=5;fillColor=#eeeeee;strokeColor=#36393d;fontStyle=1" parent="69AGn9iMl76dsXh4gzXF-2" vertex="1">
          <mxGeometry width="90" height="33" as="geometry" />
        </mxCell>
        <mxCell id="69AGn9iMl76dsXh4gzXF-4" value="strean1" style="rounded=0;whiteSpace=wrap;html=1;align=center;spacing=5;fillColor=#ffff88;strokeColor=#36393d;" parent="69AGn9iMl76dsXh4gzXF-2" vertex="1">
          <mxGeometry x="97" width="94" height="33" as="geometry" />
        </mxCell>
        <mxCell id="Nm7bH2fvmVjQ07k9dVuj-108" value="Below also we will have same set of data" style="rounded=0;whiteSpace=wrap;html=1;fontSize=16;" parent="Nm7bH2fvmVjQ07k9dVuj-109" vertex="1">
          <mxGeometry x="25" y="204" width="746" height="60" as="geometry" />
        </mxCell>
        <mxCell id="Nm7bH2fvmVjQ07k9dVuj-69" value="" style="rounded=0;whiteSpace=wrap;html=1;dashed=1;dashPattern=8 8;" parent="1" vertex="1">
          <mxGeometry x="1771" y="451" width="208" height="631" as="geometry" />
        </mxCell>
        <mxCell id="Nm7bH2fvmVjQ07k9dVuj-30" value="" style="rounded=0;whiteSpace=wrap;html=1;" parent="1" vertex="1">
          <mxGeometry x="1797" y="869" width="158" height="187" as="geometry" />
        </mxCell>
        <mxCell id="Nm7bH2fvmVjQ07k9dVuj-29" value="" style="rounded=0;whiteSpace=wrap;html=1;" parent="1" vertex="1">
          <mxGeometry x="1797" y="675.5" width="158" height="187" as="geometry" />
        </mxCell>
        <mxCell id="Nm7bH2fvmVjQ07k9dVuj-28" value="" style="rounded=0;whiteSpace=wrap;html=1;" parent="1" vertex="1">
          <mxGeometry x="1797" y="482" width="158" height="187" as="geometry" />
        </mxCell>
        <mxCell id="Nm7bH2fvmVjQ07k9dVuj-1" value="" style="rounded=0;whiteSpace=wrap;html=1;" parent="1" vertex="1">
          <mxGeometry x="829" y="353" width="463" height="816" as="geometry" />
        </mxCell>
        <mxCell id="Nm7bH2fvmVjQ07k9dVuj-4" style="edgeStyle=elbowEdgeStyle;rounded=0;orthogonalLoop=1;jettySize=auto;html=1;entryX=0;entryY=0.5;entryDx=0;entryDy=0;" parent="1" source="Nm7bH2fvmVjQ07k9dVuj-2" target="Nm7bH2fvmVjQ07k9dVuj-3" edge="1">
          <mxGeometry relative="1" as="geometry" />
        </mxCell>
        <mxCell id="Nm7bH2fvmVjQ07k9dVuj-9" style="edgeStyle=elbowEdgeStyle;rounded=0;orthogonalLoop=1;jettySize=auto;html=1;entryX=0;entryY=0.5;entryDx=0;entryDy=0;" parent="1" source="Nm7bH2fvmVjQ07k9dVuj-2" target="Nm7bH2fvmVjQ07k9dVuj-7" edge="1">
          <mxGeometry relative="1" as="geometry" />
        </mxCell>
        <mxCell id="Nm7bH2fvmVjQ07k9dVuj-10" style="edgeStyle=elbowEdgeStyle;rounded=0;orthogonalLoop=1;jettySize=auto;html=1;entryX=0;entryY=0.5;entryDx=0;entryDy=0;" parent="1" source="Nm7bH2fvmVjQ07k9dVuj-2" target="Nm7bH2fvmVjQ07k9dVuj-8" edge="1">
          <mxGeometry relative="1" as="geometry" />
        </mxCell>
        <mxCell id="Nm7bH2fvmVjQ07k9dVuj-2" value="&lt;font style=&quot;font-size: 16px;&quot;&gt;SELECT LOCATION&lt;/font&gt;" style="rounded=1;whiteSpace=wrap;html=1;fontSize=14;fillColor=#dae8fc;gradientColor=#7ea6e0;strokeColor=#6c8ebf;fontStyle=1" parent="1" vertex="1">
          <mxGeometry x="899" y="407" width="323" height="40" as="geometry" />
        </mxCell>
        <mxCell id="Nm7bH2fvmVjQ07k9dVuj-3" value="city1" style="rounded=1;whiteSpace=wrap;html=1;fontSize=13;fillColor=#e1d5e7;strokeColor=#9673a6;" parent="1" vertex="1">
          <mxGeometry x="1616" y="349" width="100" height="42" as="geometry" />
        </mxCell>
        <mxCell id="Nm7bH2fvmVjQ07k9dVuj-7" value="city2" style="rounded=1;whiteSpace=wrap;html=1;fontSize=13;fillColor=#e1d5e7;strokeColor=#9673a6;" parent="1" vertex="1">
          <mxGeometry x="1616" y="406" width="100" height="42" as="geometry" />
        </mxCell>
        <mxCell id="Nm7bH2fvmVjQ07k9dVuj-8" value="city3" style="rounded=1;whiteSpace=wrap;html=1;fontSize=13;fillColor=#e1d5e7;strokeColor=#9673a6;" parent="1" vertex="1">
          <mxGeometry x="1616" y="463" width="100" height="42" as="geometry" />
        </mxCell>
        <mxCell id="Nm7bH2fvmVjQ07k9dVuj-16" style="edgeStyle=orthogonalEdgeStyle;rounded=0;orthogonalLoop=1;jettySize=auto;html=1;entryX=0;entryY=0.5;entryDx=0;entryDy=0;" parent="1" source="Nm7bH2fvmVjQ07k9dVuj-12" target="Nm7bH2fvmVjQ07k9dVuj-13" edge="1">
          <mxGeometry relative="1" as="geometry" />
        </mxCell>
        <mxCell id="Nm7bH2fvmVjQ07k9dVuj-17" style="edgeStyle=orthogonalEdgeStyle;rounded=0;orthogonalLoop=1;jettySize=auto;html=1;entryX=0;entryY=0.5;entryDx=0;entryDy=0;" parent="1" source="Nm7bH2fvmVjQ07k9dVuj-12" target="Nm7bH2fvmVjQ07k9dVuj-14" edge="1">
          <mxGeometry relative="1" as="geometry" />
        </mxCell>
        <mxCell id="Nm7bH2fvmVjQ07k9dVuj-18" style="edgeStyle=orthogonalEdgeStyle;rounded=0;orthogonalLoop=1;jettySize=auto;html=1;entryX=0;entryY=0.5;entryDx=0;entryDy=0;" parent="1" source="Nm7bH2fvmVjQ07k9dVuj-12" target="Nm7bH2fvmVjQ07k9dVuj-15" edge="1">
          <mxGeometry relative="1" as="geometry" />
        </mxCell>
        <mxCell id="Nm7bH2fvmVjQ07k9dVuj-12" value="&lt;b&gt;&lt;font style=&quot;font-size: 16px;&quot;&gt;SUBJECT CATEGORY&lt;/font&gt;&lt;/b&gt;" style="rounded=1;whiteSpace=wrap;html=1;fontSize=14;fillColor=#d5e8d4;gradientColor=#97d077;strokeColor=#82b366;" parent="1" vertex="1">
          <mxGeometry x="896" y="749" width="323" height="40" as="geometry" />
        </mxCell>
        <mxCell id="Nm7bH2fvmVjQ07k9dVuj-31" style="edgeStyle=orthogonalEdgeStyle;rounded=0;orthogonalLoop=1;jettySize=auto;html=1;entryX=0;entryY=0.75;entryDx=0;entryDy=0;" parent="1" source="Nm7bH2fvmVjQ07k9dVuj-13" target="Nm7bH2fvmVjQ07k9dVuj-28" edge="1">
          <mxGeometry relative="1" as="geometry" />
        </mxCell>
        <mxCell id="Nm7bH2fvmVjQ07k9dVuj-13" value="stream1" style="rounded=1;whiteSpace=wrap;html=1;fontSize=13;fillColor=#fff2cc;strokeColor=#d6b656;" parent="1" vertex="1">
          <mxGeometry x="1572" y="691" width="100" height="42" as="geometry" />
        </mxCell>
        <mxCell id="Nm7bH2fvmVjQ07k9dVuj-32" style="edgeStyle=orthogonalEdgeStyle;rounded=0;orthogonalLoop=1;jettySize=auto;html=1;" parent="1" source="Nm7bH2fvmVjQ07k9dVuj-14" target="Nm7bH2fvmVjQ07k9dVuj-29" edge="1">
          <mxGeometry relative="1" as="geometry" />
        </mxCell>
        <mxCell id="Nm7bH2fvmVjQ07k9dVuj-14" value="stream2" style="rounded=1;whiteSpace=wrap;html=1;fontSize=13;fillColor=#cdeb8b;strokeColor=#36393d;" parent="1" vertex="1">
          <mxGeometry x="1572" y="748" width="100" height="42" as="geometry" />
        </mxCell>
        <mxCell id="Nm7bH2fvmVjQ07k9dVuj-33" style="edgeStyle=orthogonalEdgeStyle;rounded=0;orthogonalLoop=1;jettySize=auto;html=1;entryX=0;entryY=0.25;entryDx=0;entryDy=0;" parent="1" source="Nm7bH2fvmVjQ07k9dVuj-15" target="Nm7bH2fvmVjQ07k9dVuj-30" edge="1">
          <mxGeometry relative="1" as="geometry" />
        </mxCell>
        <mxCell id="Nm7bH2fvmVjQ07k9dVuj-15" value="stream3" style="rounded=1;whiteSpace=wrap;html=1;fontSize=13;fillColor=#cce5ff;strokeColor=#36393d;" parent="1" vertex="1">
          <mxGeometry x="1572" y="805" width="100" height="42" as="geometry" />
        </mxCell>
        <mxCell id="Nm7bH2fvmVjQ07k9dVuj-19" value="s1_sub1" style="rounded=1;whiteSpace=wrap;html=1;fontSize=13;fillColor=#fff2cc;strokeColor=#d6b656;" parent="1" vertex="1">
          <mxGeometry x="1826" y="500" width="100" height="42" as="geometry" />
        </mxCell>
        <mxCell id="Nm7bH2fvmVjQ07k9dVuj-20" value="s1_sub2" style="rounded=1;whiteSpace=wrap;html=1;fontSize=13;fillColor=#fff2cc;strokeColor=#d6b656;" parent="1" vertex="1">
          <mxGeometry x="1826" y="557" width="100" height="42" as="geometry" />
        </mxCell>
        <mxCell id="Nm7bH2fvmVjQ07k9dVuj-21" value="s1_sub3" style="rounded=1;whiteSpace=wrap;html=1;fontSize=13;fillColor=#fff2cc;strokeColor=#d6b656;" parent="1" vertex="1">
          <mxGeometry x="1826" y="614" width="100" height="42" as="geometry" />
        </mxCell>
        <mxCell id="Nm7bH2fvmVjQ07k9dVuj-22" value="s2_sub1" style="rounded=1;whiteSpace=wrap;html=1;fontSize=13;fillColor=#cdeb8b;strokeColor=#36393d;" parent="1" vertex="1">
          <mxGeometry x="1826" y="691" width="100" height="42" as="geometry" />
        </mxCell>
        <mxCell id="Nm7bH2fvmVjQ07k9dVuj-23" value="s2_sub2" style="rounded=1;whiteSpace=wrap;html=1;fontSize=13;fillColor=#cdeb8b;strokeColor=#36393d;" parent="1" vertex="1">
          <mxGeometry x="1826" y="748" width="100" height="42" as="geometry" />
        </mxCell>
        <mxCell id="Nm7bH2fvmVjQ07k9dVuj-24" value="s2_sub3" style="rounded=1;whiteSpace=wrap;html=1;fontSize=13;fillColor=#cdeb8b;strokeColor=#36393d;" parent="1" vertex="1">
          <mxGeometry x="1826" y="805" width="100" height="42" as="geometry" />
        </mxCell>
        <mxCell id="Nm7bH2fvmVjQ07k9dVuj-25" value="s3_sub1" style="rounded=1;whiteSpace=wrap;html=1;fontSize=13;fillColor=#cce5ff;strokeColor=#36393d;" parent="1" vertex="1">
          <mxGeometry x="1826" y="885" width="100" height="42" as="geometry" />
        </mxCell>
        <mxCell id="Nm7bH2fvmVjQ07k9dVuj-26" value="s3_sub2" style="rounded=1;whiteSpace=wrap;html=1;fontSize=13;fillColor=#cce5ff;strokeColor=#36393d;" parent="1" vertex="1">
          <mxGeometry x="1826" y="942" width="100" height="42" as="geometry" />
        </mxCell>
        <mxCell id="Nm7bH2fvmVjQ07k9dVuj-27" value="s3_sub3" style="rounded=1;whiteSpace=wrap;html=1;fontSize=13;fillColor=#cce5ff;strokeColor=#36393d;" parent="1" vertex="1">
          <mxGeometry x="1826" y="999" width="100" height="42" as="geometry" />
        </mxCell>
        <mxCell id="Nm7bH2fvmVjQ07k9dVuj-64" style="edgeStyle=orthogonalEdgeStyle;rounded=0;orthogonalLoop=1;jettySize=auto;html=1;entryX=0;entryY=0.5;entryDx=0;entryDy=0;" parent="1" source="Nm7bH2fvmVjQ07k9dVuj-34" target="Nm7bH2fvmVjQ07k9dVuj-50" edge="1">
          <mxGeometry relative="1" as="geometry" />
        </mxCell>
        <mxCell id="Nm7bH2fvmVjQ07k9dVuj-65" style="edgeStyle=orthogonalEdgeStyle;rounded=0;orthogonalLoop=1;jettySize=auto;html=1;entryX=0;entryY=0.5;entryDx=0;entryDy=0;" parent="1" source="Nm7bH2fvmVjQ07k9dVuj-34" target="Nm7bH2fvmVjQ07k9dVuj-51" edge="1">
          <mxGeometry relative="1" as="geometry" />
        </mxCell>
        <mxCell id="Nm7bH2fvmVjQ07k9dVuj-66" style="edgeStyle=orthogonalEdgeStyle;rounded=0;orthogonalLoop=1;jettySize=auto;html=1;entryX=0;entryY=0.5;entryDx=0;entryDy=0;" parent="1" source="Nm7bH2fvmVjQ07k9dVuj-34" target="Nm7bH2fvmVjQ07k9dVuj-53" edge="1">
          <mxGeometry relative="1" as="geometry" />
        </mxCell>
        <mxCell id="Nm7bH2fvmVjQ07k9dVuj-67" style="edgeStyle=orthogonalEdgeStyle;rounded=0;orthogonalLoop=1;jettySize=auto;html=1;entryX=0;entryY=0.5;entryDx=0;entryDy=0;" parent="1" source="Nm7bH2fvmVjQ07k9dVuj-34" target="Nm7bH2fvmVjQ07k9dVuj-54" edge="1">
          <mxGeometry relative="1" as="geometry" />
        </mxCell>
        <mxCell id="Nm7bH2fvmVjQ07k9dVuj-34" value="&lt;font style=&quot;font-size: 16px;&quot;&gt;&lt;b&gt;CHOOSE CLASS&lt;/b&gt;&lt;/font&gt;" style="rounded=1;whiteSpace=wrap;html=1;fontSize=14;fillColor=#e6d0de;gradientColor=#d5739d;strokeColor=#996185;" parent="1" vertex="1">
          <mxGeometry x="896" y="586" width="323" height="40" as="geometry" />
        </mxCell>
        <mxCell id="Nm7bH2fvmVjQ07k9dVuj-50" value="IX" style="rounded=1;whiteSpace=wrap;html=1;fillColor=#d5e8d4;strokeColor=#82b366;" parent="1" vertex="1">
          <mxGeometry x="1463" y="520" width="90" height="34" as="geometry" />
        </mxCell>
        <mxCell id="Nm7bH2fvmVjQ07k9dVuj-51" value="X" style="rounded=1;whiteSpace=wrap;html=1;fillColor=#d5e8d4;strokeColor=#82b366;" parent="1" vertex="1">
          <mxGeometry x="1463" y="564" width="90" height="34" as="geometry" />
        </mxCell>
        <mxCell id="Nm7bH2fvmVjQ07k9dVuj-52" value="XI" style="rounded=1;whiteSpace=wrap;html=1;" parent="1" vertex="1">
          <mxGeometry x="1463" y="608" width="90" height="34" as="geometry" />
        </mxCell>
        <mxCell id="Nm7bH2fvmVjQ07k9dVuj-53" value="XI" style="rounded=1;whiteSpace=wrap;html=1;fillColor=#d5e8d4;strokeColor=#82b366;" parent="1" vertex="1">
          <mxGeometry x="1463" y="608" width="90" height="34" as="geometry" />
        </mxCell>
        <mxCell id="Nm7bH2fvmVjQ07k9dVuj-54" value="XII" style="rounded=1;whiteSpace=wrap;html=1;fillColor=#d5e8d4;strokeColor=#82b366;" parent="1" vertex="1">
          <mxGeometry x="1463" y="654" width="90" height="34" as="geometry" />
        </mxCell>
        <mxCell id="Nm7bH2fvmVjQ07k9dVuj-71" style="edgeStyle=orthogonalEdgeStyle;rounded=0;orthogonalLoop=1;jettySize=auto;html=1;" parent="1" source="Nm7bH2fvmVjQ07k9dVuj-68" edge="1">
          <mxGeometry relative="1" as="geometry">
            <mxPoint x="1770.9659398396811" y="966.5" as="targetPoint" />
          </mxGeometry>
        </mxCell>
        <mxCell id="Nm7bH2fvmVjQ07k9dVuj-68" value="CHOOSE SUBJECT" style="rounded=1;whiteSpace=wrap;html=1;fontSize=16;spacing=9;fillColor=#f8cecc;gradientColor=#ea6b66;strokeColor=#b85450;fontStyle=1" parent="1" vertex="1">
          <mxGeometry x="896" y="946" width="323" height="41" as="geometry" />
        </mxCell>
        <mxCell id="Nm7bH2fvmVjQ07k9dVuj-72" value="FIND" style="rounded=1;whiteSpace=wrap;html=1;fontSize=21;fontStyle=1;fillColor=#f5f5f5;gradientColor=#b3b3b3;strokeColor=#666666;" parent="1" vertex="1">
          <mxGeometry x="957.5" y="1082" width="206" height="42" as="geometry" />
        </mxCell>
        <mxCell id="Nm7bH2fvmVjQ07k9dVuj-74" value="" style="html=1;verticalLabelPosition=bottom;align=center;labelBackgroundColor=#ffffff;verticalAlign=top;strokeWidth=2;strokeColor=#000000;shadow=0;dashed=0;shape=mxgraph.ios7.icons.looking_glass;fillColor=none;" parent="1" vertex="1">
          <mxGeometry x="1017" y="1096.5" width="13.65" height="13" as="geometry" />
        </mxCell>
        <mxCell id="Nm7bH2fvmVjQ07k9dVuj-75" value="&lt;span style=&quot;font-size: 14px;&quot;&gt;A check-box menu which will list the subjects based on the&amp;nbsp;&lt;/span&gt;&lt;b style=&quot;font-size: 14px;&quot;&gt;CATEGORY SELECTED&amp;nbsp;&lt;/b&gt;&lt;span style=&quot;font-size: 14px;&quot;&gt;from above drop down&lt;/span&gt;" style="shape=callout;whiteSpace=wrap;html=1;perimeter=calloutPerimeter;rotation=0;spacing=5;" parent="1" vertex="1">
          <mxGeometry x="1333" y="875" width="366" height="86" as="geometry" />
        </mxCell>
        <mxCell id="Nm7bH2fvmVjQ07k9dVuj-78" style="edgeStyle=orthogonalEdgeStyle;rounded=0;orthogonalLoop=1;jettySize=auto;html=1;entryX=0.75;entryY=1;entryDx=0;entryDy=0;curved=1;" parent="1" source="Nm7bH2fvmVjQ07k9dVuj-76" target="Nm7bH2fvmVjQ07k9dVuj-72" edge="1">
          <mxGeometry relative="1" as="geometry" />
        </mxCell>
        <mxCell id="Nm7bH2fvmVjQ07k9dVuj-76" value="Button to initiate search" style="text;html=1;align=left;verticalAlign=middle;whiteSpace=wrap;rounded=0;fontSize=16;" parent="1" vertex="1">
          <mxGeometry x="1184" y="1198" width="156" height="30" as="geometry" />
        </mxCell>
        <mxCell id="Nm7bH2fvmVjQ07k9dVuj-79" value="&lt;font style=&quot;font-size: 16px;&quot;&gt;Main container&lt;/font&gt;" style="text;html=1;align=right;verticalAlign=middle;whiteSpace=wrap;rounded=0;" parent="1" vertex="1">
          <mxGeometry x="773" y="253" width="60" height="30" as="geometry" />
        </mxCell>
        <mxCell id="Nm7bH2fvmVjQ07k9dVuj-80" style="edgeStyle=orthogonalEdgeStyle;rounded=0;orthogonalLoop=1;jettySize=auto;html=1;entryX=0.209;entryY=0.001;entryDx=0;entryDy=0;entryPerimeter=0;exitX=1;exitY=0.5;exitDx=0;exitDy=0;curved=1;" parent="1" source="Nm7bH2fvmVjQ07k9dVuj-79" target="Nm7bH2fvmVjQ07k9dVuj-1" edge="1">
          <mxGeometry relative="1" as="geometry" />
        </mxCell>
        <mxCell id="Nm7bH2fvmVjQ07k9dVuj-115" style="edgeStyle=orthogonalEdgeStyle;rounded=0;orthogonalLoop=1;jettySize=auto;html=1;" parent="1" source="Nm7bH2fvmVjQ07k9dVuj-113" target="Nm7bH2fvmVjQ07k9dVuj-107" edge="1">
          <mxGeometry relative="1" as="geometry" />
        </mxCell>
        <mxCell id="Nm7bH2fvmVjQ07k9dVuj-113" value="Clicking here&lt;div&gt;will take the phone number to the dialpad&amp;nbsp;&lt;/div&gt;" style="text;html=1;align=left;verticalAlign=middle;whiteSpace=wrap;rounded=0;fontSize=17;" parent="1" vertex="1">
          <mxGeometry x="2975" y="491.5" width="196" height="30" as="geometry" />
        </mxCell>
        <mxCell id="Nm7bH2fvmVjQ07k9dVuj-116" value="To google map &lt;b&gt;q-link&lt;/b&gt;" style="text;html=1;align=left;verticalAlign=middle;whiteSpace=wrap;rounded=0;fontSize=17;" parent="1" vertex="1">
          <mxGeometry x="2975" y="381" width="129" height="30" as="geometry" />
        </mxCell>
        <mxCell id="Nm7bH2fvmVjQ07k9dVuj-117" style="edgeStyle=orthogonalEdgeStyle;rounded=0;orthogonalLoop=1;jettySize=auto;html=1;entryX=0.502;entryY=-0.033;entryDx=0;entryDy=0;entryPerimeter=0;" parent="1" source="Nm7bH2fvmVjQ07k9dVuj-116" target="Nm7bH2fvmVjQ07k9dVuj-106" edge="1">
          <mxGeometry relative="1" as="geometry">
            <Array as="points">
              <mxPoint x="3039" y="456" />
              <mxPoint x="2758" y="456" />
            </Array>
          </mxGeometry>
        </mxCell>
        <mxCell id="Nm7bH2fvmVjQ07k9dVuj-118" value="SEARCH RESULT PAGE" style="rounded=1;whiteSpace=wrap;html=1;fontSize=16;fontStyle=1" parent="1" vertex="1">
          <mxGeometry x="2068" y="314" width="804" height="26" as="geometry" />
        </mxCell>
        <mxCell id="69AGn9iMl76dsXh4gzXF-6" value="Based on search" style="text;html=1;align=center;verticalAlign=middle;whiteSpace=wrap;rounded=0;fontSize=17;" parent="1" vertex="1">
          <mxGeometry x="2482" y="736" width="135" height="30" as="geometry" />
        </mxCell>
      </root>
    </mxGraphModel>
  </diagram>
</mxfile>
